<svg width="13" height="17" viewBox="0 0 13 17" fill="none" xmlns="http://www.w3.org/2000/svg">
<path d="M2.31725 3.54036C3.37884 3.89974 4.85685 4.12109 6.49807 4.12109C8.1393 4.12109 9.6173 3.89844 10.6789 3.54036C11.6107 3.22526 12.1877 2.84375 12.1877 2.47005C12.1877 2.09635 11.612 1.71484 10.6789 1.39974C9.6173 1.04167 8.1393 0.81901 6.49807 0.81901C4.85685 0.81901 3.37884 1.04167 2.31725 1.39974C0.340583 2.06901 0.285319 2.85286 2.31725 3.54036ZM12.189 11.1445C11.8574 11.375 11.4346 11.5768 10.9347 11.7461C9.79081 12.1328 8.22155 12.3724 6.49807 12.3724C4.77459 12.3724 3.20534 12.1328 2.06149 11.7461C1.56797 11.5794 1.1477 11.3789 0.8174 11.1536V13.6081C0.890657 13.9557 1.44973 14.3073 2.31725 14.6003C3.37884 14.9596 4.85685 15.181 6.49807 15.181C8.1393 15.181 9.6173 14.9583 10.6789 14.6003C11.3228 14.3828 11.7957 14.1328 12.0284 13.8776C12.2199 13.6667 12.189 13.5273 12.189 13.2734V11.1445ZM0 2.47005C0 1.70573 0.78784 1.05729 2.06149 0.626302C3.20534 0.239583 4.77459 0 6.49807 0C8.22155 0 9.79081 0.239583 10.9347 0.626302C12.0939 1.01823 12.8509 1.59115 12.9769 2.26823C12.9923 2.3112 13 2.35807 13 2.40625V13.7005C13 14.4831 11.5233 15.1758 10.9347 15.375C9.79081 15.7617 8.22155 16.0013 6.49807 16.0013C4.77459 16.0013 3.20534 15.7617 2.06149 15.375C1.45872 15.1706 0.00899654 14.5013 0.00899654 13.7005C0.00899654 13.6068 0.00899654 13.5286 0.00899654 13.4388C0.00899654 9.78125 0 6.125 0 2.47005ZM0.8174 9.97917C0.890657 10.3268 1.44973 10.6784 2.31725 10.9714C3.37884 11.3307 4.85685 11.5521 6.49807 11.5521C8.1393 11.5521 9.6173 11.3294 10.6789 10.9714C11.6107 10.6563 12.1877 10.2747 12.1877 9.90104H12.1916V7.51693C11.86 7.7474 11.4346 7.94922 10.9347 8.11849C9.79081 8.50521 8.22155 8.74479 6.49807 8.74479C4.77459 8.74479 3.20534 8.50521 2.06149 8.11849C1.56797 7.95182 1.1477 7.7513 0.8174 7.52604V9.97917ZM0.8174 6.35156C0.890657 6.69922 1.44973 7.05078 2.31725 7.34375C3.37884 7.70313 4.85685 7.92448 6.49807 7.92448C8.1393 7.92448 9.6173 7.70182 10.6789 7.34375C11.6107 7.02865 12.1877 6.64714 12.1877 6.27344H12.1916V3.71354C11.86 3.94401 11.4346 4.14583 10.9347 4.3151C9.79081 4.70182 8.22155 4.94141 6.49807 4.94141C4.77459 4.94141 3.20534 4.70182 2.06149 4.3151C1.56797 4.14844 1.1477 3.94792 0.8174 3.72266V6.35156Z" fill="#DBDBDB" fill-opacity="0.9"/>
</svg>
