<svg width="19" height="16" viewBox="0 0 19 16" fill="none" xmlns="http://www.w3.org/2000/svg">
<path d="M0.431067 0H18.5678C18.8065 0 19 0.186842 19 0.417445C19 0.544396 18.9414 0.658054 18.8488 0.734673L11.6093 7.69248V13.6635C11.6093 13.8288 11.5099 13.9716 11.3657 14.0393L7.95066 15.9438C7.74455 16.059 7.48076 15.991 7.36124 15.7921C7.32181 15.7262 7.3031 15.6544 7.30326 15.5833H7.30233V7.69114L0.125378 0.711075C-0.0425418 0.54798 -0.0417687 0.28437 0.127079 0.122321C0.211194 0.0415204 0.32113 0.00119483 0.431067 0.00119483V0ZM17.5223 0.835038H1.46781L8.0173 7.20484C8.10884 7.28131 8.16667 7.39452 8.16667 7.52057V14.8612L10.7448 13.4236V7.52057H10.7461C10.7461 7.41364 10.7884 7.3067 10.8732 7.2253L17.5223 0.835038Z" fill="#DBDBDB" fill-opacity="0.9"/>
</svg>
